<?xml version="1.0" encoding="utf-8"?>
<!-- Generator: Adobe Illustrator 22.0.1, SVG Export Plug-In . SVG Version: 6.00 Build 0)  -->
<svg version="1.1" id="Layer_1" xmlns="http://www.w3.org/2000/svg" xmlns:xlink="http://www.w3.org/1999/xlink" x="0px" y="0px"
	 viewBox="0 0 128 128" style="enable-background:new 0 0 128 128;" xml:space="preserve">
<style type="text/css">
	.st0{fill:#F1635A;}
	.st1{fill:#FFFFFF;}
</style>
<path class="st0" d="M108,128H20c-11,0-20-9-20-20V20C0,9,9,0,20,0h88c11,0,20,9,20,20v88C128,119,119,128,108,128z"/>
<g>
	<polygon class="st1" points="64,69.1 19.5,36 108.5,36 	"/>
	<polygon class="st1" points="78.2,65 112,39.6 112,90.4 	"/>
	<polygon class="st1" points="55.1,68.2 64,75.1 72.9,68.2 108.5,94 19.5,94 	"/>
	<polygon class="st1" points="49.8,65 16,39.6 16,90.4 	"/>
</g>
</svg>
